<svg width="183" height="56" viewBox="0 0 183 56" fill="none" xmlns="http://www.w3.org/2000/svg">
<mask id="path-2-outside-1_434_2471" maskUnits="userSpaceOnUse" x="8" y="10" width="165" height="32" fill="black">
<rect fill="white" x="8" y="10" width="165" height="32"/>
<path d="M21.5206 24.9149H18.1844V40H11.9836V24.9149H9.73534V19.7657H11.9836V19.1855C11.9836 16.6955 12.6968 14.8098 14.1231 13.5286C15.5494 12.2231 17.6405 11.5704 20.3964 11.5704C20.8558 11.5704 21.1942 11.5825 21.4118 11.6067V16.8647C20.2272 16.7922 19.3932 16.9614 18.9097 17.3724C18.4262 17.7833 18.1844 18.5207 18.1844 19.5844V19.7657H21.5206V24.9149ZM30.9978 23.1381C31.723 22.026 32.6296 21.1557 33.7174 20.5272C34.8053 19.8745 36.014 19.5481 37.3436 19.5481V26.1116H35.6393C34.0921 26.1116 32.9317 26.45 32.1581 27.1269C31.3845 27.7796 30.9978 28.94 30.9978 30.6081V40H24.7969V19.7657H30.9978V23.1381ZM49.8807 40.2901C47.8984 40.2901 46.1095 39.867 44.5139 39.0209C42.9426 38.1748 41.6976 36.9661 40.7789 35.3947C39.8845 33.8233 39.4372 31.986 39.4372 29.8828C39.4372 27.8038 39.8965 25.9786 40.8152 24.4072C41.7338 22.8117 42.9909 21.5909 44.5865 20.7448C46.182 19.8986 47.9709 19.4756 49.9533 19.4756C51.9356 19.4756 53.7245 19.8986 55.3201 20.7448C56.9156 21.5909 58.1727 22.8117 59.0913 24.4072C60.01 25.9786 60.4693 27.8038 60.4693 29.8828C60.4693 31.9619 59.9979 33.7992 59.0551 35.3947C58.1364 36.9661 56.8673 38.1748 55.2476 39.0209C53.652 39.867 51.8631 40.2901 49.8807 40.2901ZM49.8807 34.9233C51.0653 34.9233 52.0686 34.4881 52.8905 33.6178C53.7366 32.7476 54.1597 31.5026 54.1597 29.8828C54.1597 28.2631 53.7487 27.0181 52.9268 26.1478C52.129 25.2775 51.1378 24.8424 49.9533 24.8424C48.7445 24.8424 47.7413 25.2775 46.9435 26.1478C46.1457 26.9939 45.7468 28.239 45.7468 29.8828C45.7468 31.5026 46.1336 32.7476 46.9072 33.6178C47.705 34.4881 48.6962 34.9233 49.8807 34.9233ZM76.4508 19.5481C78.8199 19.5481 80.7055 20.3217 82.1077 21.8689C83.534 23.3919 84.2471 25.4951 84.2471 28.1785V40H78.0826V29.0125C78.0826 27.6588 77.732 26.6072 77.0309 25.8577C76.3299 25.1083 75.3871 24.7336 74.2025 24.7336C73.0179 24.7336 72.0751 25.1083 71.374 25.8577C70.673 26.6072 70.3224 27.6588 70.3224 29.0125V40H64.1216V19.7657H70.3224V22.4491C70.951 21.5546 71.7971 20.8535 72.8608 20.3459C73.9245 19.814 75.1211 19.5481 76.4508 19.5481ZM100.196 34.742V40H97.0415C94.7932 40 93.0405 39.4561 91.7834 38.3682C90.5264 37.2562 89.8978 35.4551 89.8978 32.9651V24.9149H87.432V19.7657H89.8978V14.834H96.0987V19.7657H100.16V24.9149H96.0987V33.0377C96.0987 33.642 96.2437 34.0772 96.5338 34.3431C96.8239 34.609 97.3074 34.742 97.9843 34.742H100.196ZM123.087 29.5565C123.087 30.1367 123.051 30.741 122.978 31.3696H108.945C109.041 32.6267 109.44 33.5937 110.141 34.2706C110.866 34.9233 111.749 35.2496 112.788 35.2496C114.336 35.2496 115.411 34.5969 116.016 33.2915H122.615C122.277 34.6211 121.66 35.8178 120.766 36.8814C119.896 37.9451 118.796 38.7792 117.466 39.3835C116.137 39.9879 114.65 40.2901 113.006 40.2901C111.024 40.2901 109.259 39.867 107.712 39.0209C106.164 38.1748 104.956 36.9661 104.085 35.3947C103.215 33.8233 102.78 31.986 102.78 29.8828C102.78 27.7796 103.203 25.9423 104.049 24.371C104.919 22.7996 106.128 21.5909 107.675 20.7448C109.223 19.8986 110.999 19.4756 113.006 19.4756C114.964 19.4756 116.705 19.8866 118.228 20.7085C119.751 21.5304 120.935 22.7029 121.781 24.2259C122.652 25.7489 123.087 27.5258 123.087 29.5565ZM116.741 27.9247C116.741 26.861 116.378 26.0149 115.653 25.3863C114.928 24.7578 114.021 24.4435 112.933 24.4435C111.894 24.4435 111.011 24.7457 110.286 25.3501C109.585 25.9544 109.15 26.8126 108.981 27.9247H116.741ZM139.05 19.5481C141.419 19.5481 143.305 20.3217 144.707 21.8689C146.133 23.3919 146.846 25.4951 146.846 28.1785V40H140.682V29.0125C140.682 27.6588 140.331 26.6072 139.63 25.8577C138.929 25.1083 137.986 24.7336 136.802 24.7336C135.617 24.7336 134.674 25.1083 133.973 25.8577C133.272 26.6072 132.922 27.6588 132.922 29.0125V40H126.721V19.7657H132.922V22.4491C133.55 21.5546 134.396 20.8535 135.46 20.3459C136.524 19.814 137.72 19.5481 139.05 19.5481ZM150.285 29.8466C150.285 27.7675 150.672 25.9423 151.445 24.371C152.243 22.7996 153.319 21.5909 154.673 20.7448C156.026 19.8986 157.537 19.4756 159.205 19.4756C160.535 19.4756 161.744 19.7536 162.832 20.3096C163.944 20.8656 164.814 21.615 165.442 22.5579V13.166H171.643V40H165.442V37.099C164.862 38.066 164.028 38.8396 162.94 39.4198C161.877 40 160.632 40.2901 159.205 40.2901C157.537 40.2901 156.026 39.867 154.673 39.0209C153.319 38.1506 152.243 36.9298 151.445 35.3584C150.672 33.7629 150.285 31.9256 150.285 29.8466ZM165.442 29.8828C165.442 28.3356 165.007 27.1148 164.137 26.2204C163.291 25.3259 162.251 24.8787 161.019 24.8787C159.786 24.8787 158.734 25.3259 157.864 26.2204C157.018 27.0906 156.595 28.2994 156.595 29.8466C156.595 31.3938 157.018 32.6267 157.864 33.5453C158.734 34.4398 159.786 34.887 161.019 34.887C162.251 34.887 163.291 34.4398 164.137 33.5453C165.007 32.6509 165.442 31.43 165.442 29.8828Z"/>
</mask>
<path d="M21.5206 24.9149H18.1844V40H11.9836V24.9149H9.73534V19.7657H11.9836V19.1855C11.9836 16.6955 12.6968 14.8098 14.1231 13.5286C15.5494 12.2231 17.6405 11.5704 20.3964 11.5704C20.8558 11.5704 21.1942 11.5825 21.4118 11.6067V16.8647C20.2272 16.7922 19.3932 16.9614 18.9097 17.3724C18.4262 17.7833 18.1844 18.5207 18.1844 19.5844V19.7657H21.5206V24.9149ZM30.9978 23.1381C31.723 22.026 32.6296 21.1557 33.7174 20.5272C34.8053 19.8745 36.014 19.5481 37.3436 19.5481V26.1116H35.6393C34.0921 26.1116 32.9317 26.45 32.1581 27.1269C31.3845 27.7796 30.9978 28.94 30.9978 30.6081V40H24.7969V19.7657H30.9978V23.1381ZM49.8807 40.2901C47.8984 40.2901 46.1095 39.867 44.5139 39.0209C42.9426 38.1748 41.6976 36.9661 40.7789 35.3947C39.8845 33.8233 39.4372 31.986 39.4372 29.8828C39.4372 27.8038 39.8965 25.9786 40.8152 24.4072C41.7338 22.8117 42.9909 21.5909 44.5865 20.7448C46.182 19.8986 47.9709 19.4756 49.9533 19.4756C51.9356 19.4756 53.7245 19.8986 55.3201 20.7448C56.9156 21.5909 58.1727 22.8117 59.0913 24.4072C60.01 25.9786 60.4693 27.8038 60.4693 29.8828C60.4693 31.9619 59.9979 33.7992 59.0551 35.3947C58.1364 36.9661 56.8673 38.1748 55.2476 39.0209C53.652 39.867 51.8631 40.2901 49.8807 40.2901ZM49.8807 34.9233C51.0653 34.9233 52.0686 34.4881 52.8905 33.6178C53.7366 32.7476 54.1597 31.5026 54.1597 29.8828C54.1597 28.2631 53.7487 27.0181 52.9268 26.1478C52.129 25.2775 51.1378 24.8424 49.9533 24.8424C48.7445 24.8424 47.7413 25.2775 46.9435 26.1478C46.1457 26.9939 45.7468 28.239 45.7468 29.8828C45.7468 31.5026 46.1336 32.7476 46.9072 33.6178C47.705 34.4881 48.6962 34.9233 49.8807 34.9233ZM76.4508 19.5481C78.8199 19.5481 80.7055 20.3217 82.1077 21.8689C83.534 23.3919 84.2471 25.4951 84.2471 28.1785V40H78.0826V29.0125C78.0826 27.6588 77.732 26.6072 77.0309 25.8577C76.3299 25.1083 75.3871 24.7336 74.2025 24.7336C73.0179 24.7336 72.0751 25.1083 71.374 25.8577C70.673 26.6072 70.3224 27.6588 70.3224 29.0125V40H64.1216V19.7657H70.3224V22.4491C70.951 21.5546 71.7971 20.8535 72.8608 20.3459C73.9245 19.814 75.1211 19.5481 76.4508 19.5481ZM100.196 34.742V40H97.0415C94.7932 40 93.0405 39.4561 91.7834 38.3682C90.5264 37.2562 89.8978 35.4551 89.8978 32.9651V24.9149H87.432V19.7657H89.8978V14.834H96.0987V19.7657H100.16V24.9149H96.0987V33.0377C96.0987 33.642 96.2437 34.0772 96.5338 34.3431C96.8239 34.609 97.3074 34.742 97.9843 34.742H100.196ZM123.087 29.5565C123.087 30.1367 123.051 30.741 122.978 31.3696H108.945C109.041 32.6267 109.44 33.5937 110.141 34.2706C110.866 34.9233 111.749 35.2496 112.788 35.2496C114.336 35.2496 115.411 34.5969 116.016 33.2915H122.615C122.277 34.6211 121.66 35.8178 120.766 36.8814C119.896 37.9451 118.796 38.7792 117.466 39.3835C116.137 39.9879 114.65 40.2901 113.006 40.2901C111.024 40.2901 109.259 39.867 107.712 39.0209C106.164 38.1748 104.956 36.9661 104.085 35.3947C103.215 33.8233 102.78 31.986 102.78 29.8828C102.78 27.7796 103.203 25.9423 104.049 24.371C104.919 22.7996 106.128 21.5909 107.675 20.7448C109.223 19.8986 110.999 19.4756 113.006 19.4756C114.964 19.4756 116.705 19.8866 118.228 20.7085C119.751 21.5304 120.935 22.7029 121.781 24.2259C122.652 25.7489 123.087 27.5258 123.087 29.5565ZM116.741 27.9247C116.741 26.861 116.378 26.0149 115.653 25.3863C114.928 24.7578 114.021 24.4435 112.933 24.4435C111.894 24.4435 111.011 24.7457 110.286 25.3501C109.585 25.9544 109.15 26.8126 108.981 27.9247H116.741ZM139.05 19.5481C141.419 19.5481 143.305 20.3217 144.707 21.8689C146.133 23.3919 146.846 25.4951 146.846 28.1785V40H140.682V29.0125C140.682 27.6588 140.331 26.6072 139.63 25.8577C138.929 25.1083 137.986 24.7336 136.802 24.7336C135.617 24.7336 134.674 25.1083 133.973 25.8577C133.272 26.6072 132.922 27.6588 132.922 29.0125V40H126.721V19.7657H132.922V22.4491C133.55 21.5546 134.396 20.8535 135.46 20.3459C136.524 19.814 137.72 19.5481 139.05 19.5481ZM150.285 29.8466C150.285 27.7675 150.672 25.9423 151.445 24.371C152.243 22.7996 153.319 21.5909 154.673 20.7448C156.026 19.8986 157.537 19.4756 159.205 19.4756C160.535 19.4756 161.744 19.7536 162.832 20.3096C163.944 20.8656 164.814 21.615 165.442 22.5579V13.166H171.643V40H165.442V37.099C164.862 38.066 164.028 38.8396 162.94 39.4198C161.877 40 160.632 40.2901 159.205 40.2901C157.537 40.2901 156.026 39.867 154.673 39.0209C153.319 38.1506 152.243 36.9298 151.445 35.3584C150.672 33.7629 150.285 31.9256 150.285 29.8466ZM165.442 29.8828C165.442 28.3356 165.007 27.1148 164.137 26.2204C163.291 25.3259 162.251 24.8787 161.019 24.8787C159.786 24.8787 158.734 25.3259 157.864 26.2204C157.018 27.0906 156.595 28.2994 156.595 29.8466C156.595 31.3938 157.018 32.6267 157.864 33.5453C158.734 34.4398 159.786 34.887 161.019 34.887C162.251 34.887 163.291 34.4398 164.137 33.5453C165.007 32.6509 165.442 31.43 165.442 29.8828Z" fill="#FFD500"/>
<path d="M21.5206 24.9149V25.9149H22.5206V24.9149H21.5206ZM18.1844 24.9149V23.9149H17.1844V24.9149H18.1844ZM18.1844 40V41H19.1844V40H18.1844ZM11.9836 40H10.9836V41H11.9836V40ZM11.9836 24.9149H12.9836V23.9149H11.9836V24.9149ZM9.73534 24.9149H8.73534V25.9149H9.73534V24.9149ZM9.73534 19.7657V18.7657H8.73534V19.7657H9.73534ZM11.9836 19.7657V20.7657H12.9836V19.7657H11.9836ZM14.1231 13.5286L14.7914 14.2725L14.7982 14.2662L14.1231 13.5286ZM21.4118 11.6067H22.4118V10.7116L21.5222 10.6128L21.4118 11.6067ZM21.4118 16.8647L21.3507 17.8628L22.4118 17.9278V16.8647H21.4118ZM18.9097 17.3724L19.5573 18.1343L19.5573 18.1343L18.9097 17.3724ZM18.1844 19.7657H17.1844V20.7657H18.1844V19.7657ZM21.5206 19.7657H22.5206V18.7657H21.5206V19.7657ZM21.5206 24.9149V23.9149H18.1844V24.9149V25.9149H21.5206V24.9149ZM18.1844 24.9149H17.1844V40H18.1844H19.1844V24.9149H18.1844ZM18.1844 40V39H11.9836V40V41H18.1844V40ZM11.9836 40H12.9836V24.9149H11.9836H10.9836V40H11.9836ZM11.9836 24.9149V23.9149H9.73534V24.9149V25.9149H11.9836V24.9149ZM9.73534 24.9149H10.7353V19.7657H9.73534H8.73534V24.9149H9.73534ZM9.73534 19.7657V20.7657H11.9836V19.7657V18.7657H9.73534V19.7657ZM11.9836 19.7657H12.9836V19.1855H11.9836H10.9836V19.7657H11.9836ZM11.9836 19.1855H12.9836C12.9836 16.8894 13.6349 15.3113 14.7913 14.2725L14.1231 13.5286L13.4548 12.7847C11.7586 14.3084 10.9836 16.5016 10.9836 19.1855H11.9836ZM14.1231 13.5286L14.7982 14.2662C15.9747 13.1895 17.7847 12.5704 20.3964 12.5704V11.5704V10.5704C17.4963 10.5704 15.124 11.2568 13.4479 12.7909L14.1231 13.5286ZM20.3964 11.5704V12.5704C20.8497 12.5704 21.1419 12.5828 21.3013 12.6006L21.4118 11.6067L21.5222 10.6128C21.2465 10.5822 20.8618 10.5704 20.3964 10.5704V11.5704ZM21.4118 11.6067H20.4118V16.8647H21.4118H22.4118V11.6067H21.4118ZM21.4118 16.8647L21.4729 15.8666C20.2306 15.7905 19.0551 15.9363 18.262 16.6104L18.9097 17.3724L19.5573 18.1343C19.7313 17.9865 20.2239 17.7938 21.3507 17.8628L21.4118 16.8647ZM18.9097 17.3724L18.262 16.6104C17.4415 17.3079 17.1844 18.4193 17.1844 19.5844H18.1844H19.1844C19.1844 18.6221 19.4109 18.2588 19.5573 18.1343L18.9097 17.3724ZM18.1844 19.5844H17.1844V19.7657H18.1844H19.1844V19.5844H18.1844ZM18.1844 19.7657V20.7657H21.5206V19.7657V18.7657H18.1844V19.7657ZM21.5206 19.7657H20.5206V24.9149H21.5206H22.5206V19.7657H21.5206ZM30.9978 23.1381H29.9978V26.502L31.8354 23.6843L30.9978 23.1381ZM33.7174 20.5272L34.2177 21.3931L34.2248 21.3889L34.2319 21.3847L33.7174 20.5272ZM37.3436 19.5481H38.3436V18.5481H37.3436V19.5481ZM37.3436 26.1116V27.1116H38.3436V26.1116H37.3436ZM32.1581 27.1269L32.803 27.8912L32.8099 27.8854L32.8166 27.8795L32.1581 27.1269ZM30.9978 40V41H31.9978V40H30.9978ZM24.7969 40H23.7969V41H24.7969V40ZM24.7969 19.7657V18.7657H23.7969V19.7657H24.7969ZM30.9978 19.7657H31.9978V18.7657H30.9978V19.7657ZM30.9978 23.1381L31.8354 23.6843C32.4798 22.6962 33.2735 21.9386 34.2177 21.3931L33.7174 20.5272L33.2171 19.6613C31.9856 20.3729 30.9662 21.3559 30.1601 22.5918L30.9978 23.1381ZM33.7174 20.5272L34.2319 21.3847C35.1567 20.8298 36.1862 20.5481 37.3436 20.5481V19.5481V18.5481C35.8419 18.5481 34.4538 18.9192 33.2029 19.6697L33.7174 20.5272ZM37.3436 19.5481H36.3436V26.1116H37.3436H38.3436V19.5481H37.3436ZM37.3436 26.1116V25.1116H35.6393V26.1116V27.1116H37.3436V26.1116ZM35.6393 26.1116V25.1116C33.9683 25.1116 32.5284 25.4742 31.4996 26.3743L32.1581 27.1269L32.8166 27.8795C33.3351 27.4258 34.2159 27.1116 35.6393 27.1116V26.1116ZM32.1581 27.1269L31.5133 26.3626C30.403 27.2994 29.9978 28.8317 29.9978 30.6081H30.9978H31.9978C31.9978 29.0483 32.3661 28.2599 32.803 27.8912L32.1581 27.1269ZM30.9978 30.6081H29.9978V40H30.9978H31.9978V30.6081H30.9978ZM30.9978 40V39H24.7969V40V41H30.9978V40ZM24.7969 40H25.7969V19.7657H24.7969H23.7969V40H24.7969ZM24.7969 19.7657V20.7657H30.9978V19.7657V18.7657H24.7969V19.7657ZM30.9978 19.7657H29.9978V23.1381H30.9978H31.9978V19.7657H30.9978ZM44.5139 39.0209L44.0398 39.9014L44.0454 39.9044L44.5139 39.0209ZM40.7789 35.3947L39.9098 35.8894L39.9156 35.8994L40.7789 35.3947ZM40.8152 24.4072L41.6785 24.912L41.6818 24.9062L40.8152 24.4072ZM44.5865 20.7448L45.055 21.6282L45.055 21.6282L44.5865 20.7448ZM55.3201 20.7448L54.8516 21.6282L54.8516 21.6282L55.3201 20.7448ZM59.0913 24.4072L58.2247 24.9062L58.2281 24.9119L59.0913 24.4072ZM59.0551 35.3947L58.1941 34.886L58.1918 34.89L59.0551 35.3947ZM55.2476 39.0209L54.7845 38.1346L54.779 38.1375L55.2476 39.0209ZM52.8905 33.6178L52.1735 32.9208L52.1685 32.926L52.1635 32.9312L52.8905 33.6178ZM52.9268 26.1478L52.1896 26.8236L52.1946 26.829L52.1998 26.8345L52.9268 26.1478ZM46.9435 26.1478L47.6712 26.8339L47.6807 26.8236L46.9435 26.1478ZM46.9072 33.6178L46.1598 34.2822L46.1649 34.2879L46.1701 34.2936L46.9072 33.6178ZM49.8807 40.2901V39.2901C48.0455 39.2901 46.4199 38.8998 44.9824 38.1375L44.5139 39.0209L44.0454 39.9044C45.799 40.8343 47.7513 41.2901 49.8807 41.2901V40.2901ZM44.5139 39.0209L44.988 38.1404C43.5818 37.3833 42.4701 36.3061 41.6422 34.89L40.7789 35.3947L39.9156 35.8994C40.9251 37.6261 42.3033 38.9663 44.0398 39.9014L44.5139 39.0209ZM40.7789 35.3947L41.648 34.9C40.8524 33.5024 40.4372 31.8412 40.4372 29.8828H39.4372H38.4372C38.4372 32.1309 38.9165 34.1443 39.9099 35.8894L40.7789 35.3947ZM39.4372 29.8828H40.4372C40.4372 27.9555 40.8615 26.3094 41.6785 24.9119L40.8152 24.4072L39.9519 23.9025C38.9316 25.6478 38.4372 27.6521 38.4372 29.8828H39.4372ZM40.8152 24.4072L41.6818 24.9062C42.5085 23.4704 43.629 22.3844 45.055 21.6282L44.5865 20.7448L44.118 19.8613C42.3528 20.7974 40.9592 22.153 39.9486 23.9083L40.8152 24.4072ZM44.5865 20.7448L45.055 21.6282C46.4925 20.8659 48.118 20.4756 49.9533 20.4756V19.4756V18.4756C47.8239 18.4756 45.8715 18.9314 44.118 19.8613L44.5865 20.7448ZM49.9533 19.4756V20.4756C51.7885 20.4756 53.4141 20.8659 54.8516 21.6282L55.3201 20.7448L55.7886 19.8613C54.035 18.9314 52.0827 18.4756 49.9533 18.4756V19.4756ZM55.3201 20.7448L54.8516 21.6282C56.2775 22.3844 57.398 23.4704 58.2247 24.9062L59.0913 24.4072L59.958 23.9083C58.9474 22.153 57.5537 20.7974 55.7886 19.8613L55.3201 20.7448ZM59.0913 24.4072L58.2281 24.9119C59.0451 26.3094 59.4693 27.9555 59.4693 29.8828H60.4693H61.4693C61.4693 27.6521 60.9749 25.6478 59.9546 23.9025L59.0913 24.4072ZM60.4693 29.8828H59.4693C59.4693 31.8052 59.0352 33.4626 58.1942 34.886L59.0551 35.3947L59.916 35.9034C60.9606 34.1357 61.4693 32.1185 61.4693 29.8828H60.4693ZM59.0551 35.3947L58.1918 34.89C57.3684 36.2984 56.2383 37.3751 54.7845 38.1346L55.2476 39.0209L55.7106 39.9073C57.4962 38.9745 58.9044 37.6338 59.9184 35.8994L59.0551 35.3947ZM55.2476 39.0209L54.779 38.1375C53.3415 38.8998 51.716 39.2901 49.8807 39.2901V40.2901V41.2901C52.0101 41.2901 53.9625 40.8343 55.7161 39.9044L55.2476 39.0209ZM49.8807 34.9233V35.9233C51.3437 35.9233 52.6089 35.3724 53.6175 34.3045L52.8905 33.6178L52.1635 32.9312C51.5282 33.6039 50.7869 33.9233 49.8807 33.9233V34.9233ZM52.8905 33.6178L53.6075 34.3149C54.6892 33.2024 55.1597 31.6734 55.1597 29.8828H54.1597H53.1597C53.1597 31.3317 52.7841 32.2928 52.1735 32.9208L52.8905 33.6178ZM54.1597 29.8828H55.1597C55.1597 28.0996 54.7053 26.5746 53.6538 25.4612L52.9268 26.1478L52.1998 26.8345C52.7921 27.4617 53.1597 28.4266 53.1597 29.8828H54.1597ZM52.9268 26.1478L53.6639 25.4721C52.676 24.3944 51.4171 23.8424 49.9533 23.8424V24.8424V25.8424C50.8586 25.8424 51.582 26.1607 52.1896 26.8236L52.9268 26.1478ZM49.9533 24.8424V23.8424C48.4718 23.8424 47.1986 24.3897 46.2063 25.4721L46.9435 26.1478L47.6807 26.8236C48.2839 26.1654 49.0172 25.8424 49.9533 25.8424V24.8424ZM46.9435 26.1478L46.2159 25.4618C45.1821 26.5583 44.7468 28.0896 44.7468 29.8828H45.7468H46.7468C46.7468 28.3883 47.1094 27.4296 47.6711 26.8338L46.9435 26.1478ZM45.7468 29.8828H44.7468C44.7468 31.6517 45.1695 33.1681 46.1598 34.2822L46.9072 33.6178L47.6546 32.9535C47.0978 32.327 46.7468 31.3534 46.7468 29.8828H45.7468ZM46.9072 33.6178L46.1701 34.2936C47.158 35.3713 48.4169 35.9233 49.8807 35.9233V34.9233V33.9233C48.9754 33.9233 48.252 33.605 47.6444 32.9421L46.9072 33.6178ZM82.1077 21.8689L81.3667 22.5404L81.3722 22.5465L81.3778 22.5524L82.1077 21.8689ZM84.2471 40V41H85.2471V40H84.2471ZM78.0826 40H77.0826V41H78.0826V40ZM77.0309 25.8577L76.3007 26.5409L76.3007 26.5409L77.0309 25.8577ZM71.374 25.8577L72.1043 26.5409L72.1043 26.5409L71.374 25.8577ZM70.3224 40V41H71.3224V40H70.3224ZM64.1216 40H63.1216V41H64.1216V40ZM64.1216 19.7657V18.7657H63.1216V19.7657H64.1216ZM70.3224 19.7657H71.3224V18.7657H70.3224V19.7657ZM70.3224 22.4491H69.3224V25.6115L71.1406 23.024L70.3224 22.4491ZM72.8608 20.3459L73.2915 21.2484L73.2998 21.2444L73.308 21.2403L72.8608 20.3459ZM76.4508 19.5481V20.5481C78.5796 20.5481 80.1806 21.2316 81.3667 22.5404L82.1077 21.8689L82.8486 21.1974C81.2304 19.4118 79.0601 18.5481 76.4508 18.5481V19.5481ZM82.1077 21.8689L81.3778 22.5524C82.5852 23.8417 83.2471 25.6738 83.2471 28.1785H84.2471H85.2471C85.2471 25.3164 84.4828 22.9421 82.8376 21.1853L82.1077 21.8689ZM84.2471 28.1785H83.2471V40H84.2471H85.2471V28.1785H84.2471ZM84.2471 40V39H78.0826V40V41H84.2471V40ZM78.0826 40H79.0826V29.0125H78.0826H77.0826V40H78.0826ZM78.0826 29.0125H79.0826C79.0826 27.4882 78.6851 26.1622 77.7612 25.1746L77.0309 25.8577L76.3007 26.5409C76.779 27.0521 77.0826 27.8293 77.0826 29.0125H78.0826ZM77.0309 25.8577L77.7612 25.1746C76.8413 24.1912 75.6171 23.7336 74.2025 23.7336V24.7336V25.7336C75.157 25.7336 75.8184 26.0254 76.3007 26.5409L77.0309 25.8577ZM74.2025 24.7336V23.7336C72.7879 23.7336 71.5637 24.1912 70.6438 25.1746L71.374 25.8577L72.1043 26.5409C72.5866 26.0254 73.248 25.7336 74.2025 25.7336V24.7336ZM71.374 25.8577L70.6438 25.1746C69.7199 26.1622 69.3224 27.4882 69.3224 29.0125H70.3224H71.3224C71.3224 27.8293 71.626 27.0521 72.1043 26.5409L71.374 25.8577ZM70.3224 29.0125H69.3224V40H70.3224H71.3224V29.0125H70.3224ZM70.3224 40V39H64.1216V40V41H70.3224V40ZM64.1216 40H65.1216V19.7657H64.1216H63.1216V40H64.1216ZM64.1216 19.7657V20.7657H70.3224V19.7657V18.7657H64.1216V19.7657ZM70.3224 19.7657H69.3224V22.4491H70.3224H71.3224V19.7657H70.3224ZM70.3224 22.4491L71.1406 23.024C71.6627 22.2811 72.3705 21.6879 73.2915 21.2484L72.8608 20.3459L72.4301 19.4434C71.2237 20.0192 70.2393 20.8281 69.5042 21.8741L70.3224 22.4491ZM72.8608 20.3459L73.308 21.2403C74.2172 20.7857 75.2579 20.5481 76.4508 20.5481V19.5481V18.5481C74.9844 18.5481 73.6318 18.8423 72.4136 19.4514L72.8608 20.3459ZM100.196 34.742H101.196V33.742H100.196V34.742ZM100.196 40V41H101.196V40H100.196ZM91.7834 38.3682L91.1208 39.1172L91.1291 39.1244L91.7834 38.3682ZM89.8978 24.9149H90.8978V23.9149H89.8978V24.9149ZM87.432 24.9149H86.432V25.9149H87.432V24.9149ZM87.432 19.7657V18.7657H86.432V19.7657H87.432ZM89.8978 19.7657V20.7657H90.8978V19.7657H89.8978ZM89.8978 14.834V13.834H88.8978V14.834H89.8978ZM96.0987 14.834H97.0987V13.834H96.0987V14.834ZM96.0987 19.7657H95.0987V20.7657H96.0987V19.7657ZM100.16 19.7657H101.16V18.7657H100.16V19.7657ZM100.16 24.9149V25.9149H101.16V24.9149H100.16ZM96.0987 24.9149V23.9149H95.0987V24.9149H96.0987ZM96.5338 34.3431L95.8581 35.0802L95.8581 35.0802L96.5338 34.3431ZM100.196 34.742H99.1963V40H100.196H101.196V34.742H100.196ZM100.196 40V39H97.0415V40V41H100.196V40ZM97.0415 40V39C94.9483 39 93.4577 38.4946 92.4378 37.612L91.7834 38.3682L91.1291 39.1244C92.6234 40.4175 94.6381 41 97.0415 41V40ZM91.7834 38.3682L92.446 37.6192C91.4899 36.7734 90.8978 35.3089 90.8978 32.9651H89.8978H88.8978C88.8978 35.6014 89.5628 37.7389 91.1209 39.1172L91.7834 38.3682ZM89.8978 32.9651H90.8978V24.9149H89.8978H88.8978V32.9651H89.8978ZM89.8978 24.9149V23.9149H87.432V24.9149V25.9149H89.8978V24.9149ZM87.432 24.9149H88.432V19.7657H87.432H86.432V24.9149H87.432ZM87.432 19.7657V20.7657H89.8978V19.7657V18.7657H87.432V19.7657ZM89.8978 19.7657H90.8978V14.834H89.8978H88.8978V19.7657H89.8978ZM89.8978 14.834V15.834H96.0987V14.834V13.834H89.8978V14.834ZM96.0987 14.834H95.0987V19.7657H96.0987H97.0987V14.834H96.0987ZM96.0987 19.7657V20.7657H100.16V19.7657V18.7657H96.0987V19.7657ZM100.16 19.7657H99.16V24.9149H100.16H101.16V19.7657H100.16ZM100.16 24.9149V23.9149H96.0987V24.9149V25.9149H100.16V24.9149ZM96.0987 24.9149H95.0987V33.0377H96.0987H97.0987V24.9149H96.0987ZM96.0987 33.0377H95.0987C95.0987 33.7733 95.2725 34.5434 95.8581 35.0802L96.5338 34.3431L97.2095 33.6059C97.2091 33.6055 97.1839 33.5843 97.1561 33.5011C97.1264 33.412 97.0987 33.2644 97.0987 33.0377H96.0987ZM96.5338 34.3431L95.8581 35.0802C96.4264 35.6012 97.2231 35.742 97.9843 35.742V34.742V33.742C97.3917 33.742 97.2214 33.6169 97.2095 33.6059L96.5338 34.3431ZM97.9843 34.742V35.742H100.196V34.742V33.742H97.9843V34.742ZM122.978 31.3696V32.3696H123.869L123.971 31.4842L122.978 31.3696ZM108.945 31.3696V30.3696H107.865L107.947 31.4463L108.945 31.3696ZM110.141 34.2706L109.447 34.99L109.459 35.0021L109.472 35.0139L110.141 34.2706ZM116.016 33.2915V32.2915H115.377L115.108 32.8714L116.016 33.2915ZM122.615 33.2915L123.584 33.5382L123.902 32.2915H122.615V33.2915ZM120.766 36.8814L120.001 36.2378L119.992 36.2482L120.766 36.8814ZM117.466 39.3835L117.88 40.2939L117.466 39.3835ZM107.712 39.0209L107.232 39.8983L107.232 39.8983L107.712 39.0209ZM104.085 35.3947L104.96 34.9102L104.96 34.9102L104.085 35.3947ZM104.049 24.371L103.174 23.8864L103.169 23.8969L104.049 24.371ZM107.675 20.7448L108.155 21.6221L108.155 21.6221L107.675 20.7448ZM118.228 20.7085L117.753 21.5885L117.753 21.5885L118.228 20.7085ZM121.781 24.2259L120.907 24.7116L120.913 24.7221L121.781 24.2259ZM116.741 27.9247V28.9247H117.741V27.9247H116.741ZM115.653 25.3863L116.308 24.6306L116.308 24.6306L115.653 25.3863ZM110.286 25.3501L109.646 24.5818L109.64 24.5872L109.633 24.5927L110.286 25.3501ZM108.981 27.9247L107.992 27.7742L107.817 28.9247H108.981V27.9247ZM123.087 29.5565H122.087C122.087 30.0951 122.053 30.6611 121.985 31.255L122.978 31.3696L123.971 31.4842C124.048 30.821 124.087 30.1782 124.087 29.5565H123.087ZM122.978 31.3696V30.3696H108.945V31.3696V32.3696H122.978V31.3696ZM108.945 31.3696L107.947 31.4463C108.057 32.8739 108.523 34.098 109.447 34.99L110.141 34.2706L110.836 33.5512C110.357 33.0893 110.025 32.3795 109.942 31.2929L108.945 31.3696ZM110.141 34.2706L109.472 35.0139C110.394 35.8433 111.519 36.2496 112.788 36.2496V35.2496V34.2496C111.978 34.2496 111.339 34.0033 110.81 33.5273L110.141 34.2706ZM112.788 35.2496V36.2496C113.703 36.2496 114.548 36.0559 115.274 35.615C116.006 35.1714 116.55 34.518 116.923 33.7116L116.016 33.2915L115.108 32.8714C114.877 33.3704 114.581 33.6961 114.237 33.9052C113.888 34.117 113.421 34.2496 112.788 34.2496V35.2496ZM116.016 33.2915V34.2915H122.615V33.2915V32.2915H116.016V33.2915ZM122.615 33.2915L121.646 33.0448C121.346 34.2265 120.799 35.2879 120.001 36.2378L120.766 36.8814L121.531 37.525C122.521 36.3476 123.208 35.0157 123.584 33.5382L122.615 33.2915ZM120.766 36.8814L119.992 36.2482C119.225 37.1857 118.251 37.9282 117.052 38.4732L117.466 39.3835L117.88 40.2939C119.34 39.6301 120.566 38.7046 121.54 37.5147L120.766 36.8814ZM117.466 39.3835L117.052 38.4732C115.868 39.0115 114.525 39.2901 113.006 39.2901V40.2901V41.2901C114.775 41.2901 116.405 40.9644 117.88 40.2939L117.466 39.3835ZM113.006 40.2901V39.2901C111.17 39.2901 109.574 38.8996 108.191 38.1435L107.712 39.0209L107.232 39.8983C108.944 40.8344 110.877 41.2901 113.006 41.2901V40.2901ZM107.712 39.0209L108.191 38.1435C106.814 37.3901 105.741 36.3191 104.96 34.9102L104.085 35.3947L103.211 35.8792C104.171 37.613 105.515 38.9595 107.232 39.8983L107.712 39.0209ZM104.085 35.3947L104.96 34.9102C104.185 33.5106 103.78 31.8457 103.78 29.8828H102.78H101.78C101.78 32.1264 102.245 34.136 103.211 35.8792L104.085 35.3947ZM102.78 29.8828H103.78C103.78 27.9156 104.175 26.2468 104.93 24.8451L104.049 24.371L103.169 23.8969C102.231 25.6379 101.78 27.6437 101.78 29.8828H102.78ZM104.049 24.371L104.924 24.8555C105.704 23.4466 106.777 22.3756 108.155 21.6221L107.675 20.7448L107.196 19.8674C105.479 20.8062 104.135 22.1527 103.174 23.8865L104.049 24.371ZM107.675 20.7448L108.155 21.6221C109.536 20.867 111.144 20.4756 113.006 20.4756V19.4756V18.4756C110.855 18.4756 108.909 18.9303 107.196 19.8674L107.675 20.7448ZM113.006 19.4756V20.4756C114.82 20.4756 116.394 20.8552 117.753 21.5885L118.228 20.7085L118.703 19.8285C117.015 18.9179 115.108 18.4756 113.006 18.4756V19.4756ZM118.228 20.7085L117.753 21.5885C119.107 22.3192 120.153 23.3542 120.907 24.7116L121.781 24.2259L122.656 23.7403C121.717 22.0516 120.395 20.7417 118.703 19.8285L118.228 20.7085ZM121.781 24.2259L120.913 24.7221C121.684 26.0716 122.087 27.6721 122.087 29.5565H123.087H124.087C124.087 27.3795 123.619 25.4263 122.65 23.7298L121.781 24.2259ZM116.741 27.9247H117.741C117.741 26.6062 117.278 25.4711 116.308 24.6306L115.653 25.3863L114.998 26.142C115.479 26.5587 115.741 27.1157 115.741 27.9247H116.741ZM115.653 25.3863L116.308 24.6306C115.377 23.8234 114.228 23.4435 112.933 23.4435V24.4435V25.4435C113.815 25.4435 114.479 25.6921 114.998 26.142L115.653 25.3863ZM112.933 24.4435V23.4435C111.685 23.4435 110.57 23.8123 109.646 24.5818L110.286 25.3501L110.926 26.1183C111.453 25.6791 112.103 25.4435 112.933 25.4435V24.4435ZM110.286 25.3501L109.633 24.5927C108.715 25.3845 108.189 26.4792 107.992 27.7742L108.981 27.9247L109.969 28.0751C110.111 27.1461 110.456 26.5243 110.939 26.1075L110.286 25.3501ZM108.981 27.9247V28.9247H116.741V27.9247V26.9247H108.981V27.9247ZM144.707 21.8689L143.966 22.5404L143.971 22.5465L143.977 22.5524L144.707 21.8689ZM146.846 40V41H147.846V40H146.846ZM140.682 40H139.682V41H140.682V40ZM139.63 25.8577L138.9 26.5409L138.9 26.5409L139.63 25.8577ZM133.973 25.8577L134.703 26.5409L134.703 26.5409L133.973 25.8577ZM132.922 40V41H133.922V40H132.922ZM126.721 40H125.721V41H126.721V40ZM126.721 19.7657V18.7657H125.721V19.7657H126.721ZM132.922 19.7657H133.922V18.7657H132.922V19.7657ZM132.922 22.4491H131.922V25.6115L133.74 23.024L132.922 22.4491ZM135.46 20.3459L135.891 21.2484L135.899 21.2444L135.907 21.2403L135.46 20.3459ZM139.05 19.5481V20.5481C141.179 20.5481 142.78 21.2316 143.966 22.5404L144.707 21.8689L145.448 21.1974C143.83 19.4118 141.659 18.5481 139.05 18.5481V19.5481ZM144.707 21.8689L143.977 22.5524C145.184 23.8417 145.846 25.6738 145.846 28.1785H146.846H147.846C147.846 25.3164 147.082 22.9421 145.437 21.1853L144.707 21.8689ZM146.846 28.1785H145.846V40H146.846H147.846V28.1785H146.846ZM146.846 40V39H140.682V40V41H146.846V40ZM140.682 40H141.682V29.0125H140.682H139.682V40H140.682ZM140.682 29.0125H141.682C141.682 27.4882 141.284 26.1622 140.36 25.1746L139.63 25.8577L138.9 26.5409C139.378 27.0521 139.682 27.8293 139.682 29.0125H140.682ZM139.63 25.8577L140.36 25.1746C139.44 24.1912 138.216 23.7336 136.802 23.7336V24.7336V25.7336C137.756 25.7336 138.418 26.0254 138.9 26.5409L139.63 25.8577ZM136.802 24.7336V23.7336C135.387 23.7336 134.163 24.1912 133.243 25.1746L133.973 25.8577L134.703 26.5409C135.186 26.0254 135.847 25.7336 136.802 25.7336V24.7336ZM133.973 25.8577L133.243 25.1746C132.319 26.1622 131.922 27.4882 131.922 29.0125H132.922H133.922C133.922 27.8293 134.225 27.0521 134.703 26.5409L133.973 25.8577ZM132.922 29.0125H131.922V40H132.922H133.922V29.0125H132.922ZM132.922 40V39H126.721V40V41H132.922V40ZM126.721 40H127.721V19.7657H126.721H125.721V40H126.721ZM126.721 19.7657V20.7657H132.922V19.7657V18.7657H126.721V19.7657ZM132.922 19.7657H131.922V22.4491H132.922H133.922V19.7657H132.922ZM132.922 22.4491L133.74 23.024C134.262 22.2811 134.97 21.6879 135.891 21.2484L135.46 20.3459L135.029 19.4434C133.823 20.0192 132.838 20.8281 132.103 21.8741L132.922 22.4491ZM135.46 20.3459L135.907 21.2403C136.816 20.7857 137.857 20.5481 139.05 20.5481V19.5481V18.5481C137.583 18.5481 136.231 18.8423 135.013 19.4514L135.46 20.3459ZM151.445 24.371L150.554 23.9183L150.548 23.9293L151.445 24.371ZM154.673 20.7448L155.203 21.5928L155.203 21.5928L154.673 20.7448ZM162.832 20.3096L162.376 21.2001L162.384 21.204L162.832 20.3096ZM165.442 22.5579L164.61 23.1126L166.442 25.8606V22.5579H165.442ZM165.442 13.166V12.166H164.442V13.166H165.442ZM171.643 13.166H172.643V12.166H171.643V13.166ZM171.643 40V41H172.643V40H171.643ZM165.442 40H164.442V41H165.442V40ZM165.442 37.099H166.442V33.4887L164.585 36.5845L165.442 37.099ZM162.94 39.4198L162.47 38.5374L162.462 38.5419L162.94 39.4198ZM154.673 39.0209L154.132 39.8622L154.143 39.8689L154.673 39.0209ZM151.445 35.3584L150.545 35.7947L150.549 35.803L150.554 35.8111L151.445 35.3584ZM164.137 26.2204L163.411 26.9076L163.42 26.9177L164.137 26.2204ZM157.864 26.2204L157.147 25.523L157.147 25.5233L157.864 26.2204ZM157.864 33.5453L157.128 34.2228L157.137 34.2329L157.147 34.2427L157.864 33.5453ZM164.137 33.5453L163.42 32.8479L163.411 32.8581L164.137 33.5453ZM150.285 29.8466H151.285C151.285 27.8923 151.648 26.2232 152.342 24.8127L151.445 24.371L150.548 23.9293C149.695 25.6615 149.285 27.6428 149.285 29.8466H150.285ZM151.445 24.371L152.337 24.8237C153.061 23.3972 154.019 22.3326 155.203 21.5928L154.673 20.7448L154.143 19.8968C152.619 20.8491 151.425 22.2021 150.554 23.9183L151.445 24.371ZM154.673 20.7448L155.203 21.5928C156.39 20.8505 157.716 20.4756 159.205 20.4756V19.4756V18.4756C157.359 18.4756 155.663 18.9467 154.143 19.8968L154.673 20.7448ZM159.205 19.4756V20.4756C160.391 20.4756 161.442 20.7223 162.377 21.2L162.832 20.3096L163.287 19.4192C162.046 18.7849 160.679 18.4756 159.205 18.4756V19.4756ZM162.832 20.3096L162.384 21.204C163.356 21.69 164.088 22.3284 164.61 23.1126L165.442 22.5579L166.275 22.0032C165.54 20.9017 164.531 20.0413 163.279 19.4152L162.832 20.3096ZM165.442 22.5579H166.442V13.166H165.442H164.442V22.5579H165.442ZM165.442 13.166V14.166H171.643V13.166V12.166H165.442V13.166ZM171.643 13.166H170.643V40H171.643H172.643V13.166H171.643ZM171.643 40V39H165.442V40V41H171.643V40ZM165.442 40H166.442V37.099H165.442H164.442V40H165.442ZM165.442 37.099L164.585 36.5845C164.107 37.3818 163.413 38.0343 162.47 38.5375L162.94 39.4198L163.411 40.3022C164.643 39.6449 165.618 38.7502 166.3 37.6135L165.442 37.099ZM162.94 39.4198L162.462 38.5419C161.569 39.0289 160.494 39.2901 159.205 39.2901V40.2901V41.2901C160.769 41.2901 162.185 40.9711 163.419 40.2977L162.94 39.4198ZM159.205 40.2901V39.2901C157.716 39.2901 156.39 38.9151 155.203 38.1729L154.673 39.0209L154.143 39.8689C155.663 40.8189 157.359 41.2901 159.205 41.2901V40.2901ZM154.673 39.0209L155.213 38.1797C154.023 37.4145 153.062 36.3342 152.337 34.9057L151.445 35.3584L150.554 35.8111C151.424 37.5254 152.615 38.8868 154.132 39.8621L154.673 39.0209ZM151.445 35.3584L152.345 34.9222C151.648 33.4842 151.285 31.8004 151.285 29.8466H150.285H149.285C149.285 32.0508 149.695 34.0416 150.545 35.7947L151.445 35.3584ZM165.442 29.8828H166.442C166.442 28.141 165.947 26.6466 164.854 25.523L164.137 26.2204L163.42 26.9177C164.068 27.5831 164.442 28.5303 164.442 29.8828H165.442ZM164.137 26.2204L164.864 25.5332C163.828 24.4387 162.526 23.8787 161.019 23.8787V24.8787V25.8787C161.977 25.8787 162.754 26.2131 163.411 26.9076L164.137 26.2204ZM161.019 24.8787V23.8787C159.512 23.8787 158.203 24.4377 157.147 25.523L157.864 26.2204L158.58 26.9177C159.265 26.2141 160.059 25.8787 161.019 25.8787V24.8787ZM157.864 26.2204L157.147 25.5233C156.073 26.6277 155.595 28.1138 155.595 29.8466H156.595H157.595C157.595 28.485 157.962 27.5536 158.581 26.9174L157.864 26.2204ZM156.595 29.8466H155.595C155.595 31.5821 156.074 33.0781 157.128 34.2228L157.864 33.5453L158.599 32.8678C157.961 32.1753 157.595 31.2055 157.595 29.8466H156.595ZM157.864 33.5453L157.147 34.2427C158.203 35.328 159.512 35.887 161.019 35.887V34.887V33.887C160.059 33.887 159.265 33.5516 158.58 32.848L157.864 33.5453ZM161.019 34.887V35.887C162.526 35.887 163.828 35.327 164.864 34.2325L164.137 33.5453L163.411 32.8581C162.754 33.5526 161.977 33.887 161.019 33.887V34.887ZM164.137 33.5453L164.854 34.2427C165.947 33.1191 166.442 31.6246 166.442 29.8828H165.442H164.442C164.442 31.2354 164.068 32.1826 163.42 32.848L164.137 33.5453Z" fill="black" mask="url(#path-2-outside-1_434_2471)"/>
</svg>
