<svg width="183" height="56" viewBox="0 0 183 56" fill="none" xmlns="http://www.w3.org/2000/svg">
<path d="M21.5206 24.9149H18.1844V40H11.9836V24.9149H9.73534V19.7657H11.9836V19.1855C11.9836 16.6955 12.6968 14.8098 14.1231 13.5286C15.5494 12.2231 17.6405 11.5704 20.3964 11.5704C20.8558 11.5704 21.1942 11.5825 21.4118 11.6067V16.8647C20.2272 16.7922 19.3932 16.9614 18.9097 17.3724C18.4262 17.7833 18.1844 18.5207 18.1844 19.5844V19.7657H21.5206V24.9149ZM30.9978 23.1381C31.723 22.026 32.6296 21.1557 33.7174 20.5272C34.8053 19.8745 36.014 19.5481 37.3436 19.5481V26.1116H35.6393C34.0921 26.1116 32.9317 26.45 32.1581 27.1269C31.3845 27.7796 30.9978 28.94 30.9978 30.6081V40H24.7969V19.7657H30.9978V23.1381ZM49.8807 40.2901C47.8984 40.2901 46.1095 39.867 44.5139 39.0209C42.9426 38.1748 41.6976 36.9661 40.7789 35.3947C39.8845 33.8233 39.4372 31.986 39.4372 29.8828C39.4372 27.8038 39.8965 25.9786 40.8152 24.4072C41.7338 22.8117 42.9909 21.5909 44.5865 20.7448C46.182 19.8986 47.9709 19.4756 49.9533 19.4756C51.9356 19.4756 53.7245 19.8986 55.3201 20.7448C56.9156 21.5909 58.1727 22.8117 59.0913 24.4072C60.01 25.9786 60.4693 27.8038 60.4693 29.8828C60.4693 31.9619 59.9979 33.7992 59.0551 35.3947C58.1364 36.9661 56.8673 38.1748 55.2476 39.0209C53.652 39.867 51.8631 40.2901 49.8807 40.2901ZM49.8807 34.9233C51.0653 34.9233 52.0686 34.4881 52.8905 33.6178C53.7366 32.7476 54.1597 31.5026 54.1597 29.8828C54.1597 28.2631 53.7487 27.0181 52.9268 26.1478C52.129 25.2775 51.1378 24.8424 49.9533 24.8424C48.7445 24.8424 47.7413 25.2775 46.9435 26.1478C46.1457 26.9939 45.7468 28.239 45.7468 29.8828C45.7468 31.5026 46.1336 32.7476 46.9072 33.6178C47.705 34.4881 48.6962 34.9233 49.8807 34.9233ZM76.4508 19.5481C78.8199 19.5481 80.7055 20.3217 82.1077 21.8689C83.534 23.3919 84.2471 25.4951 84.2471 28.1785V40H78.0826V29.0125C78.0826 27.6588 77.732 26.6072 77.0309 25.8577C76.3299 25.1083 75.3871 24.7336 74.2025 24.7336C73.0179 24.7336 72.0751 25.1083 71.374 25.8577C70.673 26.6072 70.3224 27.6588 70.3224 29.0125V40H64.1216V19.7657H70.3224V22.4491C70.951 21.5546 71.7971 20.8535 72.8608 20.3459C73.9245 19.814 75.1211 19.5481 76.4508 19.5481ZM100.196 34.742V40H97.0415C94.7932 40 93.0405 39.4561 91.7834 38.3682C90.5264 37.2562 89.8978 35.4551 89.8978 32.9651V24.9149H87.432V19.7657H89.8978V14.834H96.0987V19.7657H100.16V24.9149H96.0987V33.0377C96.0987 33.642 96.2437 34.0772 96.5338 34.3431C96.8239 34.609 97.3074 34.742 97.9843 34.742H100.196ZM123.087 29.5565C123.087 30.1367 123.051 30.741 122.978 31.3696H108.945C109.041 32.6267 109.44 33.5937 110.141 34.2706C110.866 34.9233 111.749 35.2496 112.788 35.2496C114.336 35.2496 115.411 34.5969 116.016 33.2915H122.615C122.277 34.6211 121.66 35.8178 120.766 36.8814C119.896 37.9451 118.796 38.7792 117.466 39.3835C116.137 39.9879 114.65 40.2901 113.006 40.2901C111.024 40.2901 109.259 39.867 107.712 39.0209C106.164 38.1748 104.956 36.9661 104.085 35.3947C103.215 33.8233 102.78 31.986 102.78 29.8828C102.78 27.7796 103.203 25.9423 104.049 24.371C104.919 22.7996 106.128 21.5909 107.675 20.7448C109.223 19.8986 110.999 19.4756 113.006 19.4756C114.964 19.4756 116.705 19.8866 118.228 20.7085C119.751 21.5304 120.935 22.7029 121.781 24.2259C122.652 25.7489 123.087 27.5258 123.087 29.5565ZM116.741 27.9247C116.741 26.861 116.378 26.0149 115.653 25.3863C114.928 24.7578 114.021 24.4435 112.933 24.4435C111.894 24.4435 111.011 24.7457 110.286 25.3501C109.585 25.9544 109.15 26.8126 108.981 27.9247H116.741ZM139.05 19.5481C141.419 19.5481 143.305 20.3217 144.707 21.8689C146.133 23.3919 146.846 25.4951 146.846 28.1785V40H140.682V29.0125C140.682 27.6588 140.331 26.6072 139.63 25.8577C138.929 25.1083 137.986 24.7336 136.802 24.7336C135.617 24.7336 134.674 25.1083 133.973 25.8577C133.272 26.6072 132.922 27.6588 132.922 29.0125V40H126.721V19.7657H132.922V22.4491C133.55 21.5546 134.396 20.8535 135.46 20.3459C136.524 19.814 137.72 19.5481 139.05 19.5481ZM150.285 29.8466C150.285 27.7675 150.672 25.9423 151.445 24.371C152.243 22.7996 153.319 21.5909 154.673 20.7448C156.026 19.8986 157.537 19.4756 159.205 19.4756C160.535 19.4756 161.744 19.7536 162.832 20.3096C163.944 20.8656 164.814 21.615 165.442 22.5579V13.166H171.643V40H165.442V37.099C164.862 38.066 164.028 38.8396 162.94 39.4198C161.877 40 160.632 40.2901 159.205 40.2901C157.537 40.2901 156.026 39.867 154.673 39.0209C153.319 38.1506 152.243 36.9298 151.445 35.3584C150.672 33.7629 150.285 31.9256 150.285 29.8466ZM165.442 29.8828C165.442 28.3356 165.007 27.1148 164.137 26.2204C163.291 25.3259 162.251 24.8787 161.019 24.8787C159.786 24.8787 158.734 25.3259 157.864 26.2204C157.018 27.0906 156.595 28.2994 156.595 29.8466C156.595 31.3938 157.018 32.6267 157.864 33.5453C158.734 34.4398 159.786 34.887 161.019 34.887C162.251 34.887 163.291 34.4398 164.137 33.5453C165.007 32.6509 165.442 31.43 165.442 29.8828Z" fill="black"/>
</svg>
