<svg width="181" height="35" viewBox="0 0 181 35" fill="none" xmlns="http://www.w3.org/2000/svg">
<mask id="path-1-outside-1_434_2470" maskUnits="userSpaceOnUse" x="0" y="0" width="181" height="35" fill="black">
<rect fill="white" width="181" height="35"/>
<path d="M14.3073 16.36H10.6273V33H3.78734V16.36H1.30734V10.68H3.78734V10.04C3.78734 7.29333 4.57401 5.21333 6.14734 3.8C7.72068 2.36 10.0273 1.64 13.0673 1.64C13.574 1.64 13.9473 1.65333 14.1873 1.68V7.48C12.8807 7.4 11.9607 7.58667 11.4273 8.04C10.894 8.49333 10.6273 9.30666 10.6273 10.48V10.68H14.3073V16.36ZM24.7614 14.4C25.5614 13.1733 26.5614 12.2133 27.7614 11.52C28.9614 10.8 30.2947 10.44 31.7614 10.44V17.68H29.8814C28.1747 17.68 26.8947 18.0533 26.0414 18.8C25.1881 19.52 24.7614 20.8 24.7614 22.64V33H17.9214V10.68H24.7614V14.4ZM45.5908 33.32C43.4041 33.32 41.4308 32.8533 39.6708 31.92C37.9374 30.9867 36.5641 29.6533 35.5508 27.92C34.5641 26.1867 34.0708 24.16 34.0708 21.84C34.0708 19.5467 34.5774 17.5333 35.5908 15.8C36.6041 14.04 37.9908 12.6933 39.7508 11.76C41.5108 10.8267 43.4841 10.36 45.6708 10.36C47.8574 10.36 49.8308 10.8267 51.5908 11.76C53.3508 12.6933 54.7374 14.04 55.7508 15.8C56.7641 17.5333 57.2708 19.5467 57.2708 21.84C57.2708 24.1333 56.7508 26.16 55.7108 27.92C54.6974 29.6533 53.2974 30.9867 51.5108 31.92C49.7508 32.8533 47.7774 33.32 45.5908 33.32ZM45.5908 27.4C46.8974 27.4 48.0041 26.92 48.9108 25.96C49.8441 25 50.3108 23.6267 50.3108 21.84C50.3108 20.0533 49.8574 18.68 48.9508 17.72C48.0708 16.76 46.9774 16.28 45.6708 16.28C44.3374 16.28 43.2308 16.76 42.3508 17.72C41.4708 18.6533 41.0308 20.0267 41.0308 21.84C41.0308 23.6267 41.4574 25 42.3108 25.96C43.1908 26.92 44.2841 27.4 45.5908 27.4ZM74.8995 10.44C77.5129 10.44 79.5929 11.2933 81.1395 13C82.7129 14.68 83.4995 17 83.4995 19.96V33H76.6995V20.88C76.6995 19.3867 76.3129 18.2267 75.5395 17.4C74.7662 16.5733 73.7262 16.16 72.4195 16.16C71.1129 16.16 70.0729 16.5733 69.2995 17.4C68.5262 18.2267 68.1395 19.3867 68.1395 20.88V33H61.2995V10.68H68.1395V13.64C68.8329 12.6533 69.7662 11.88 70.9395 11.32C72.1129 10.7333 73.4329 10.44 74.8995 10.44ZM101.093 27.2V33H97.6127C95.1327 33 93.1993 32.4 91.8127 31.2C90.426 29.9733 89.7327 27.9867 89.7327 25.24V16.36H87.0127V10.68H89.7327V5.24H96.5727V10.68H101.053V16.36H96.5727V25.32C96.5727 25.9867 96.7327 26.4667 97.0527 26.76C97.3727 27.0533 97.906 27.2 98.6527 27.2H101.093ZM126.343 21.48C126.343 22.12 126.303 22.7867 126.223 23.48H110.743C110.849 24.8667 111.289 25.9333 112.063 26.68C112.863 27.4 113.836 27.76 114.983 27.76C116.689 27.76 117.876 27.04 118.543 25.6H125.823C125.449 27.0667 124.769 28.3867 123.783 29.56C122.823 30.7333 121.609 31.6533 120.143 32.32C118.676 32.9867 117.036 33.32 115.223 33.32C113.036 33.32 111.089 32.8533 109.383 31.92C107.676 30.9867 106.343 29.6533 105.383 27.92C104.423 26.1867 103.943 24.16 103.943 21.84C103.943 19.52 104.409 17.4933 105.343 15.76C106.303 14.0267 107.636 12.6933 109.343 11.76C111.049 10.8267 113.009 10.36 115.223 10.36C117.383 10.36 119.303 10.8133 120.983 11.72C122.663 12.6267 123.969 13.92 124.903 15.6C125.863 17.28 126.343 19.24 126.343 21.48ZM119.343 19.68C119.343 18.5067 118.943 17.5733 118.143 16.88C117.343 16.1867 116.343 15.84 115.143 15.84C113.996 15.84 113.023 16.1733 112.223 16.84C111.449 17.5067 110.969 18.4533 110.783 19.68H119.343ZM143.951 10.44C146.564 10.44 148.644 11.2933 150.191 13C151.764 14.68 152.551 17 152.551 19.96V33H145.751V20.88C145.751 19.3867 145.364 18.2267 144.591 17.4C143.818 16.5733 142.778 16.16 141.471 16.16C140.164 16.16 139.124 16.5733 138.351 17.4C137.578 18.2267 137.191 19.3867 137.191 20.88V33H130.351V10.68H137.191V13.64C137.884 12.6533 138.818 11.88 139.991 11.32C141.164 10.7333 142.484 10.44 143.951 10.44ZM156.344 21.8C156.344 19.5067 156.771 17.4933 157.624 15.76C158.504 14.0267 159.691 12.6933 161.184 11.76C162.678 10.8267 164.344 10.36 166.184 10.36C167.651 10.36 168.984 10.6667 170.184 11.28C171.411 11.8933 172.371 12.72 173.064 13.76V3.4H179.904V33H173.064V29.8C172.424 30.8667 171.504 31.72 170.304 32.36C169.131 33 167.758 33.32 166.184 33.32C164.344 33.32 162.678 32.8533 161.184 31.92C159.691 30.96 158.504 29.6133 157.624 27.88C156.771 26.12 156.344 24.0933 156.344 21.8ZM173.064 21.84C173.064 20.1333 172.584 18.7867 171.624 17.8C170.691 16.8133 169.544 16.32 168.184 16.32C166.824 16.32 165.664 16.8133 164.704 17.8C163.771 18.76 163.304 20.0933 163.304 21.8C163.304 23.5067 163.771 24.8667 164.704 25.88C165.664 26.8667 166.824 27.36 168.184 27.36C169.544 27.36 170.691 26.8667 171.624 25.88C172.584 24.8933 173.064 23.5467 173.064 21.84Z"/>
</mask>
<path d="M14.3073 16.36H10.6273V33H3.78734V16.36H1.30734V10.68H3.78734V10.04C3.78734 7.29333 4.57401 5.21333 6.14734 3.8C7.72068 2.36 10.0273 1.64 13.0673 1.64C13.574 1.64 13.9473 1.65333 14.1873 1.68V7.48C12.8807 7.4 11.9607 7.58667 11.4273 8.04C10.894 8.49333 10.6273 9.30666 10.6273 10.48V10.68H14.3073V16.36ZM24.7614 14.4C25.5614 13.1733 26.5614 12.2133 27.7614 11.52C28.9614 10.8 30.2947 10.44 31.7614 10.44V17.68H29.8814C28.1747 17.68 26.8947 18.0533 26.0414 18.8C25.1881 19.52 24.7614 20.8 24.7614 22.64V33H17.9214V10.68H24.7614V14.4ZM45.5908 33.32C43.4041 33.32 41.4308 32.8533 39.6708 31.92C37.9374 30.9867 36.5641 29.6533 35.5508 27.92C34.5641 26.1867 34.0708 24.16 34.0708 21.84C34.0708 19.5467 34.5774 17.5333 35.5908 15.8C36.6041 14.04 37.9908 12.6933 39.7508 11.76C41.5108 10.8267 43.4841 10.36 45.6708 10.36C47.8574 10.36 49.8308 10.8267 51.5908 11.76C53.3508 12.6933 54.7374 14.04 55.7508 15.8C56.7641 17.5333 57.2708 19.5467 57.2708 21.84C57.2708 24.1333 56.7508 26.16 55.7108 27.92C54.6974 29.6533 53.2974 30.9867 51.5108 31.92C49.7508 32.8533 47.7774 33.32 45.5908 33.32ZM45.5908 27.4C46.8974 27.4 48.0041 26.92 48.9108 25.96C49.8441 25 50.3108 23.6267 50.3108 21.84C50.3108 20.0533 49.8574 18.68 48.9508 17.72C48.0708 16.76 46.9774 16.28 45.6708 16.28C44.3374 16.28 43.2308 16.76 42.3508 17.72C41.4708 18.6533 41.0308 20.0267 41.0308 21.84C41.0308 23.6267 41.4574 25 42.3108 25.96C43.1908 26.92 44.2841 27.4 45.5908 27.4ZM74.8995 10.44C77.5129 10.44 79.5929 11.2933 81.1395 13C82.7129 14.68 83.4995 17 83.4995 19.96V33H76.6995V20.88C76.6995 19.3867 76.3129 18.2267 75.5395 17.4C74.7662 16.5733 73.7262 16.16 72.4195 16.16C71.1129 16.16 70.0729 16.5733 69.2995 17.4C68.5262 18.2267 68.1395 19.3867 68.1395 20.88V33H61.2995V10.68H68.1395V13.64C68.8329 12.6533 69.7662 11.88 70.9395 11.32C72.1129 10.7333 73.4329 10.44 74.8995 10.44ZM101.093 27.2V33H97.6127C95.1327 33 93.1993 32.4 91.8127 31.2C90.426 29.9733 89.7327 27.9867 89.7327 25.24V16.36H87.0127V10.68H89.7327V5.24H96.5727V10.68H101.053V16.36H96.5727V25.32C96.5727 25.9867 96.7327 26.4667 97.0527 26.76C97.3727 27.0533 97.906 27.2 98.6527 27.2H101.093ZM126.343 21.48C126.343 22.12 126.303 22.7867 126.223 23.48H110.743C110.849 24.8667 111.289 25.9333 112.063 26.68C112.863 27.4 113.836 27.76 114.983 27.76C116.689 27.76 117.876 27.04 118.543 25.6H125.823C125.449 27.0667 124.769 28.3867 123.783 29.56C122.823 30.7333 121.609 31.6533 120.143 32.32C118.676 32.9867 117.036 33.32 115.223 33.32C113.036 33.32 111.089 32.8533 109.383 31.92C107.676 30.9867 106.343 29.6533 105.383 27.92C104.423 26.1867 103.943 24.16 103.943 21.84C103.943 19.52 104.409 17.4933 105.343 15.76C106.303 14.0267 107.636 12.6933 109.343 11.76C111.049 10.8267 113.009 10.36 115.223 10.36C117.383 10.36 119.303 10.8133 120.983 11.72C122.663 12.6267 123.969 13.92 124.903 15.6C125.863 17.28 126.343 19.24 126.343 21.48ZM119.343 19.68C119.343 18.5067 118.943 17.5733 118.143 16.88C117.343 16.1867 116.343 15.84 115.143 15.84C113.996 15.84 113.023 16.1733 112.223 16.84C111.449 17.5067 110.969 18.4533 110.783 19.68H119.343ZM143.951 10.44C146.564 10.44 148.644 11.2933 150.191 13C151.764 14.68 152.551 17 152.551 19.96V33H145.751V20.88C145.751 19.3867 145.364 18.2267 144.591 17.4C143.818 16.5733 142.778 16.16 141.471 16.16C140.164 16.16 139.124 16.5733 138.351 17.4C137.578 18.2267 137.191 19.3867 137.191 20.88V33H130.351V10.68H137.191V13.64C137.884 12.6533 138.818 11.88 139.991 11.32C141.164 10.7333 142.484 10.44 143.951 10.44ZM156.344 21.8C156.344 19.5067 156.771 17.4933 157.624 15.76C158.504 14.0267 159.691 12.6933 161.184 11.76C162.678 10.8267 164.344 10.36 166.184 10.36C167.651 10.36 168.984 10.6667 170.184 11.28C171.411 11.8933 172.371 12.72 173.064 13.76V3.4H179.904V33H173.064V29.8C172.424 30.8667 171.504 31.72 170.304 32.36C169.131 33 167.758 33.32 166.184 33.32C164.344 33.32 162.678 32.8533 161.184 31.92C159.691 30.96 158.504 29.6133 157.624 27.88C156.771 26.12 156.344 24.0933 156.344 21.8ZM173.064 21.84C173.064 20.1333 172.584 18.7867 171.624 17.8C170.691 16.8133 169.544 16.32 168.184 16.32C166.824 16.32 165.664 16.8133 164.704 17.8C163.771 18.76 163.304 20.0933 163.304 21.8C163.304 23.5067 163.771 24.8667 164.704 25.88C165.664 26.8667 166.824 27.36 168.184 27.36C169.544 27.36 170.691 26.8667 171.624 25.88C172.584 24.8933 173.064 23.5467 173.064 21.84Z" fill="#FFD500"/>
<path d="M14.3073 16.36V17.36H15.3073V16.36H14.3073ZM10.6273 16.36V15.36H9.62734V16.36H10.6273ZM10.6273 33V34H11.6273V33H10.6273ZM3.78734 33H2.78734V34H3.78734V33ZM3.78734 16.36H4.78734V15.36H3.78734V16.36ZM1.30734 16.36H0.307342V17.36H1.30734V16.36ZM1.30734 10.68V9.68H0.307342V10.68H1.30734ZM3.78734 10.68V11.68H4.78734V10.68H3.78734ZM6.14734 3.8L6.81564 4.54395L6.8225 4.53767L6.14734 3.8ZM14.1873 1.68H15.1873V0.784954L14.2978 0.686114L14.1873 1.68ZM14.1873 7.48L14.1262 8.47813L15.1873 8.5431V7.48H14.1873ZM11.4273 8.04L12.075 8.80194L12.075 8.80194L11.4273 8.04ZM10.6273 10.68H9.62734V11.68H10.6273V10.68ZM14.3073 10.68H15.3073V9.68H14.3073V10.68ZM14.3073 16.36V15.36H10.6273V16.36V17.36H14.3073V16.36ZM10.6273 16.36H9.62734V33H10.6273H11.6273V16.36H10.6273ZM10.6273 33V32H3.78734V33V34H10.6273V33ZM3.78734 33H4.78734V16.36H3.78734H2.78734V33H3.78734ZM3.78734 16.36V15.36H1.30734V16.36V17.36H3.78734V16.36ZM1.30734 16.36H2.30734V10.68H1.30734H0.307342V16.36H1.30734ZM1.30734 10.68V11.68H3.78734V10.68V9.68H1.30734V10.68ZM3.78734 10.68H4.78734V10.04H3.78734H2.78734V10.68H3.78734ZM3.78734 10.04H4.78734C4.78734 7.48721 5.51216 5.71482 6.81561 4.54392L6.14734 3.8L5.47908 3.05608C3.63586 4.71185 2.78734 7.09946 2.78734 10.04H3.78734ZM6.14734 3.8L6.8225 4.53767C8.14602 3.32632 10.1715 2.64 13.0673 2.64V1.64V0.639998C9.88318 0.639998 7.29533 1.39368 5.47218 3.06233L6.14734 3.8ZM13.0673 1.64V2.64C13.568 2.64 13.895 2.65367 14.0769 2.67388L14.1873 1.68L14.2978 0.686114C13.9997 0.652992 13.58 0.639998 13.0673 0.639998V1.64ZM14.1873 1.68H13.1873V7.48H14.1873H15.1873V1.68H14.1873ZM14.1873 7.48L14.2485 6.48187C12.884 6.39833 11.6226 6.56161 10.7797 7.27806L11.4273 8.04L12.075 8.80194C12.2988 8.61172 12.8773 8.40167 14.1262 8.47813L14.1873 7.48ZM11.4273 8.04L10.7797 7.27806C9.90928 8.01791 9.62734 9.20526 9.62734 10.48H10.6273H11.6273C11.6273 9.40807 11.8787 8.96875 12.075 8.80194L11.4273 8.04ZM10.6273 10.48H9.62734V10.68H10.6273H11.6273V10.48H10.6273ZM10.6273 10.68V11.68H14.3073V10.68V9.68H10.6273V10.68ZM14.3073 10.68H13.3073V16.36H14.3073H15.3073V10.68H14.3073ZM24.7614 14.4H23.7614V17.7639L25.599 14.9463L24.7614 14.4ZM27.7614 11.52L28.2617 12.3859L28.2688 12.3817L28.2759 12.3775L27.7614 11.52ZM31.7614 10.44H32.7614V9.44H31.7614V10.44ZM31.7614 17.68V18.68H32.7614V17.68H31.7614ZM26.0414 18.8L26.6863 19.5643L26.6931 19.5585L26.6999 19.5526L26.0414 18.8ZM24.7614 33V34H25.7614V33H24.7614ZM17.9214 33H16.9214V34H17.9214V33ZM17.9214 10.68V9.68H16.9214V10.68H17.9214ZM24.7614 10.68H25.7614V9.68H24.7614V10.68ZM24.7614 14.4L25.599 14.9463C26.3182 13.8435 27.2054 12.9962 28.2617 12.3859L27.7614 11.52L27.2611 10.6541C25.9174 11.4305 24.8046 12.5032 23.9238 13.8537L24.7614 14.4ZM27.7614 11.52L28.2759 12.3775C29.3129 11.7553 30.4669 11.44 31.7614 11.44V10.44V9.44C30.1226 9.44 28.6099 9.84469 27.2469 10.6625L27.7614 11.52ZM31.7614 10.44H30.7614V17.68H31.7614H32.7614V10.44H31.7614ZM31.7614 17.68V16.68H29.8814V17.68V18.68H31.7614V17.68ZM29.8814 17.68V16.68C28.051 16.68 26.4914 17.0775 25.3829 18.0474L26.0414 18.8L26.6999 19.5526C27.2981 19.0291 28.2985 18.68 29.8814 18.68V17.68ZM26.0414 18.8L25.3965 18.0357C24.2065 19.0398 23.7614 20.6917 23.7614 22.64H24.7614H25.7614C25.7614 20.9083 26.1696 20.0002 26.6863 19.5643L26.0414 18.8ZM24.7614 22.64H23.7614V33H24.7614H25.7614V22.64H24.7614ZM24.7614 33V32H17.9214V33V34H24.7614V33ZM17.9214 33H18.9214V10.68H17.9214H16.9214V33H17.9214ZM17.9214 10.68V11.68H24.7614V10.68V9.68H17.9214V10.68ZM24.7614 10.68H23.7614V14.4H24.7614H25.7614V10.68H24.7614ZM39.6708 31.92L39.1967 32.8005L39.2023 32.8035L39.6708 31.92ZM35.5508 27.92L34.6817 28.4147L34.6875 28.4247L35.5508 27.92ZM35.5908 15.8L36.4541 16.3047L36.4574 16.299L35.5908 15.8ZM39.7508 11.76L40.2193 12.6435L40.2193 12.6435L39.7508 11.76ZM51.5908 11.76L51.1223 12.6435L51.1223 12.6435L51.5908 11.76ZM55.7508 15.8L54.8841 16.299L54.8875 16.3047L55.7508 15.8ZM55.7108 27.92L54.8498 27.4113L54.8475 27.4153L55.7108 27.92ZM51.5108 31.92L51.0478 31.0336L51.0423 31.0365L51.5108 31.92ZM48.9108 25.96L48.1938 25.2629L48.1887 25.2681L48.1838 25.2734L48.9108 25.96ZM48.9508 17.72L48.2136 18.3957L48.2187 18.4012L48.2238 18.4066L48.9508 17.72ZM42.3508 17.72L43.0784 18.4061L43.0879 18.3957L42.3508 17.72ZM42.3108 25.96L41.5634 26.6244L41.5685 26.6301L41.5736 26.6357L42.3108 25.96ZM45.5908 33.32V32.32C43.5512 32.32 41.7413 31.8861 40.1393 31.0365L39.6708 31.92L39.2023 32.8035C41.1203 33.8206 43.257 34.32 45.5908 34.32V33.32ZM39.6708 31.92L40.1449 31.0395C38.5767 30.1951 37.3366 28.9933 36.4141 27.4153L35.5508 27.92L34.6875 28.4247C35.7916 30.3133 37.2982 31.7782 39.1967 32.8005L39.6708 31.92ZM35.5508 27.92L36.4198 27.4253C35.5321 25.8657 35.0708 24.0151 35.0708 21.84H34.0708H33.0708C33.0708 24.3049 33.5961 26.5076 34.6817 28.4147L35.5508 27.92ZM34.0708 21.84H35.0708C35.0708 19.6984 35.5424 17.8642 36.4541 16.3047L35.5908 15.8L34.7275 15.2953C33.6125 17.2025 33.0708 19.3949 33.0708 21.84H34.0708ZM35.5908 15.8L36.4574 16.299C37.3788 14.6987 38.6289 13.4868 40.2193 12.6435L39.7508 11.76L39.2823 10.8765C37.3527 11.8998 35.8295 13.3813 34.7242 15.301L35.5908 15.8ZM39.7508 11.76L40.2193 12.6435C41.8213 11.7939 43.6312 11.36 45.6708 11.36V10.36V9.36C43.337 9.36 41.2003 9.8594 39.2823 10.8765L39.7508 11.76ZM45.6708 10.36V11.36C47.7104 11.36 49.5203 11.7939 51.1223 12.6435L51.5908 11.76L52.0593 10.8765C50.1413 9.8594 48.0045 9.36 45.6708 9.36V10.36ZM51.5908 11.76L51.1223 12.6435C52.7127 13.4868 53.9628 14.6987 54.8842 16.299L55.7508 15.8L56.6174 15.301C55.5121 13.3813 53.9889 11.8998 52.0593 10.8765L51.5908 11.76ZM55.7508 15.8L54.8875 16.3047C55.7992 17.8642 56.2708 19.6984 56.2708 21.84H57.2708H58.2708C58.2708 19.3949 57.7291 17.2025 56.6141 15.2953L55.7508 15.8ZM57.2708 21.84H56.2708C56.2708 23.9767 55.7881 25.8235 54.8499 27.4113L55.7108 27.92L56.5717 28.4287C57.7135 26.4965 58.2708 24.29 58.2708 21.84H57.2708ZM55.7108 27.92L54.8475 27.4153C53.9294 28.9856 52.6685 30.187 51.0478 31.0337L51.5108 31.92L51.9738 32.8063C53.9264 31.7863 55.4655 30.321 56.5741 28.4247L55.7108 27.92ZM51.5108 31.92L51.0423 31.0365C49.4403 31.8861 47.6304 32.32 45.5908 32.32V33.32V34.32C47.9245 34.32 50.0613 33.8206 51.9793 32.8035L51.5108 31.92ZM45.5908 27.4V28.4C47.1759 28.4 48.5445 27.8042 49.6378 26.6466L48.9108 25.96L48.1838 25.2734C47.4637 26.0358 46.619 26.4 45.5908 26.4V27.4ZM48.9108 25.96L49.6278 26.6571C50.7967 25.4548 51.3108 23.7975 51.3108 21.84H50.3108H49.3108C49.3108 23.4559 48.8916 24.5452 48.1938 25.2629L48.9108 25.96ZM50.3108 21.84H51.3108C51.3108 19.8898 50.814 18.2365 49.6778 17.0334L48.9508 17.72L48.2238 18.4066C48.9008 19.1235 49.3108 20.2168 49.3108 21.84H50.3108ZM48.9508 17.72L49.6879 17.0443C48.6178 15.8769 47.2567 15.28 45.6708 15.28V16.28V17.28C46.6982 17.28 47.5238 17.6431 48.2136 18.3957L48.9508 17.72ZM45.6708 16.28V15.28C44.0647 15.28 42.6881 15.8721 41.6136 17.0443L42.3508 17.72L43.0879 18.3957C43.7735 17.6479 44.6102 17.28 45.6708 17.28V16.28ZM42.3508 17.72L41.6232 17.034C40.5071 18.2177 40.0308 19.8774 40.0308 21.84H41.0308H42.0308C42.0308 20.176 42.4344 19.089 43.0784 18.406L42.3508 17.72ZM41.0308 21.84H40.0308C40.0308 23.7758 40.4933 25.4206 41.5634 26.6244L42.3108 25.96L43.0582 25.2956C42.4216 24.5794 42.0308 23.4775 42.0308 21.84H41.0308ZM42.3108 25.96L41.5736 26.6357C42.6438 27.8031 44.0049 28.4 45.5908 28.4V27.4V26.4C44.5633 26.4 43.7378 26.0369 43.0479 25.2843L42.3108 25.96ZM81.1395 13L80.3985 13.6715L80.404 13.6776L80.4096 13.6836L81.1395 13ZM83.4995 33V34H84.4995V33H83.4995ZM76.6995 33H75.6995V34H76.6995V33ZM75.5395 17.4L74.8093 18.0832L74.8093 18.0832L75.5395 17.4ZM69.2995 17.4L70.0298 18.0832L70.0298 18.0832L69.2995 17.4ZM68.1395 33V34H69.1395V33H68.1395ZM61.2995 33H60.2995V34H61.2995V33ZM61.2995 10.68V9.68H60.2995V10.68H61.2995ZM68.1395 10.68H69.1395V9.68H68.1395V10.68ZM68.1395 13.64H67.1395V16.8024L68.9577 14.2149L68.1395 13.64ZM70.9395 11.32L71.3703 12.2225L71.3785 12.2185L71.3867 12.2144L70.9395 11.32ZM74.8995 10.44V11.44C77.2726 11.44 79.0679 12.2033 80.3985 13.6715L81.1395 13L81.8805 12.3285C80.1178 10.3834 77.7531 9.44 74.8995 9.44V10.44ZM81.1395 13L80.4096 13.6836C81.7641 15.1298 82.4995 17.1787 82.4995 19.96H83.4995H84.4995C84.4995 16.8213 83.6617 14.2302 81.8694 12.3164L81.1395 13ZM83.4995 19.96H82.4995V33H83.4995H84.4995V19.96H83.4995ZM83.4995 33V32H76.6995V33V34H83.4995V33ZM76.6995 33H77.6995V20.88H76.6995H75.6995V33H76.6995ZM76.6995 20.88H77.6995C77.6995 19.2161 77.2659 17.7817 76.2698 16.7168L75.5395 17.4L74.8093 18.0832C75.3598 18.6717 75.6995 19.5572 75.6995 20.88H76.6995ZM75.5395 17.4L76.2698 16.7168C75.2776 15.6563 73.9562 15.16 72.4195 15.16V16.16V17.16C73.4962 17.16 74.2547 17.4904 74.8093 18.0832L75.5395 17.4ZM72.4195 16.16V15.16C70.8828 15.16 69.5614 15.6563 68.5693 16.7168L69.2995 17.4L70.0298 18.0832C70.5843 17.4904 71.3429 17.16 72.4195 17.16V16.16ZM69.2995 17.4L68.5693 16.7168C67.5731 17.7817 67.1395 19.2161 67.1395 20.88H68.1395H69.1395C69.1395 19.5572 69.4793 18.6717 70.0298 18.0832L69.2995 17.4ZM68.1395 20.88H67.1395V33H68.1395H69.1395V20.88H68.1395ZM68.1395 33V32H61.2995V33V34H68.1395V33ZM61.2995 33H62.2995V10.68H61.2995H60.2995V33H61.2995ZM61.2995 10.68V11.68H68.1395V10.68V9.68H61.2995V10.68ZM68.1395 10.68H67.1395V13.64H68.1395H69.1395V10.68H68.1395ZM68.1395 13.64L68.9577 14.2149C69.5445 13.3799 70.3396 12.7144 71.3703 12.2225L70.9395 11.32L70.5088 10.4175C69.1928 11.0456 68.1212 11.9268 67.3213 13.0651L68.1395 13.64ZM70.9395 11.32L71.3867 12.2144C72.4056 11.705 73.5696 11.44 74.8995 11.44V10.44V9.44C73.2961 9.44 71.8202 9.76164 70.4923 10.4256L70.9395 11.32ZM101.093 27.2H102.093V26.2H101.093V27.2ZM101.093 33V34H102.093V33H101.093ZM91.8127 31.2L91.15 31.949L91.1583 31.9562L91.8127 31.2ZM89.7327 16.36H90.7327V15.36H89.7327V16.36ZM87.0127 16.36H86.0127V17.36H87.0127V16.36ZM87.0127 10.68V9.68H86.0127V10.68H87.0127ZM89.7327 10.68V11.68H90.7327V10.68H89.7327ZM89.7327 5.24V4.24H88.7327V5.24H89.7327ZM96.5727 5.24H97.5727V4.24H96.5727V5.24ZM96.5727 10.68H95.5727V11.68H96.5727V10.68ZM101.053 10.68H102.053V9.68H101.053V10.68ZM101.053 16.36V17.36H102.053V16.36H101.053ZM96.5727 16.36V15.36H95.5727V16.36H96.5727ZM97.0527 26.76L96.3769 27.4972L96.3769 27.4972L97.0527 26.76ZM101.093 27.2H100.093V33H101.093H102.093V27.2H101.093ZM101.093 33V32H97.6127V33V34H101.093V33ZM97.6127 33V32C95.2878 32 93.6165 31.4386 92.467 30.4438L91.8127 31.2L91.1583 31.9562C92.7822 33.3614 94.9775 34 97.6127 34V33ZM91.8127 31.2L92.4752 30.451C91.3895 29.4906 90.7327 27.8404 90.7327 25.24H89.7327H88.7327C88.7327 28.1329 89.4624 30.4561 91.1501 31.949L91.8127 31.2ZM89.7327 25.24H90.7327V16.36H89.7327H88.7327V25.24H89.7327ZM89.7327 16.36V15.36H87.0127V16.36V17.36H89.7327V16.36ZM87.0127 16.36H88.0127V10.68H87.0127H86.0127V16.36H87.0127ZM87.0127 10.68V11.68H89.7327V10.68V9.68H87.0127V10.68ZM89.7327 10.68H90.7327V5.24H89.7327H88.7327V10.68H89.7327ZM89.7327 5.24V6.24H96.5727V5.24V4.24H89.7327V5.24ZM96.5727 5.24H95.5727V10.68H96.5727H97.5727V5.24H96.5727ZM96.5727 10.68V11.68H101.053V10.68V9.68H96.5727V10.68ZM101.053 10.68H100.053V16.36H101.053H102.053V10.68H101.053ZM101.053 16.36V15.36H96.5727V16.36V17.36H101.053V16.36ZM96.5727 16.36H95.5727V25.32H96.5727H97.5727V16.36H96.5727ZM96.5727 25.32H95.5727C95.5727 26.118 95.7614 26.9329 96.3769 27.4972L97.0527 26.76L97.7284 26.0228C97.7039 26.0004 97.5727 25.8554 97.5727 25.32H96.5727ZM97.0527 26.76L96.3769 27.4972C96.9751 28.0455 97.8217 28.2 98.6527 28.2V27.2V26.2C97.9903 26.2 97.7702 26.0612 97.7284 26.0228L97.0527 26.76ZM98.6527 27.2V28.2H101.093V27.2V26.2H98.6527V27.2ZM126.223 23.48V24.48H127.114L127.216 23.5946L126.223 23.48ZM110.743 23.48V22.48H109.663L109.746 23.5567L110.743 23.48ZM112.063 26.68L111.368 27.3994L111.381 27.4116L111.394 27.4233L112.063 26.68ZM118.543 25.6V24.6H117.904L117.635 25.1799L118.543 25.6ZM125.823 25.6L126.792 25.8467L127.109 24.6H125.823V25.6ZM123.783 29.56L123.017 28.9163L123.009 28.9268L123.783 29.56ZM120.143 32.32L120.556 33.2304L120.143 32.32ZM109.383 31.92L108.903 32.7974L108.903 32.7974L109.383 31.92ZM105.383 27.92L106.257 27.4355L106.257 27.4355L105.383 27.92ZM105.343 15.76L104.468 15.2755L104.462 15.2859L105.343 15.76ZM109.343 11.76L109.822 12.6374L109.822 12.6374L109.343 11.76ZM120.983 11.72L120.508 12.6L120.508 12.6L120.983 11.72ZM124.903 15.6L124.028 16.0857L124.034 16.0961L124.903 15.6ZM119.343 19.68V20.68H120.343V19.68H119.343ZM118.143 16.88L118.798 16.1243L118.798 16.1243L118.143 16.88ZM112.223 16.84L111.582 16.0718L111.576 16.0771L111.57 16.0826L112.223 16.84ZM110.783 19.68L109.794 19.5296L109.619 20.68H110.783V19.68ZM126.343 21.48H125.343C125.343 22.0784 125.305 22.7067 125.229 23.3654L126.223 23.48L127.216 23.5946C127.3 22.8666 127.343 22.1616 127.343 21.48H126.343ZM126.223 23.48V22.48H110.743V23.48V24.48H126.223V23.48ZM110.743 23.48L109.746 23.5567C109.865 25.1139 110.372 26.4377 111.368 27.3994L112.063 26.68L112.757 25.9606C112.207 25.429 111.833 24.6195 111.74 23.4033L110.743 23.48ZM112.063 26.68L111.394 27.4233C112.39 28.32 113.607 28.76 114.983 28.76V27.76V26.76C114.065 26.76 113.335 26.48 112.732 25.9367L112.063 26.68ZM114.983 27.76V28.76C115.977 28.76 116.889 28.5494 117.671 28.0749C118.458 27.5976 119.046 26.8938 119.45 26.0201L118.543 25.6L117.635 25.1799C117.373 25.7462 117.034 26.1224 116.634 26.3651C116.229 26.6106 115.695 26.76 114.983 26.76V27.76ZM118.543 25.6V26.6H125.823V25.6V24.6H118.543V25.6ZM125.823 25.6L124.854 25.3533C124.518 26.6721 123.908 27.8568 123.017 28.9164L123.783 29.56L124.548 30.2036C125.63 28.9165 126.381 27.4613 126.792 25.8467L125.823 25.6ZM123.783 29.56L123.009 28.9268C122.152 29.9739 121.065 30.8024 119.729 31.4096L120.143 32.32L120.556 33.2304C122.154 32.5043 123.493 31.4928 124.557 30.1932L123.783 29.56ZM120.143 32.32L119.729 31.4096C118.408 32.0102 116.911 32.32 115.223 32.32V33.32V34.32C117.161 34.32 118.944 33.9631 120.556 33.2304L120.143 32.32ZM115.223 33.32V32.32C113.183 32.32 111.405 31.8859 109.862 31.0426L109.383 31.92L108.903 32.7974C110.774 33.8207 112.889 34.32 115.223 34.32V33.32ZM109.383 31.92L109.862 31.0426C108.325 30.202 107.127 29.0064 106.257 27.4355L105.383 27.92L104.508 28.4045C105.558 30.3003 107.027 31.7714 108.903 32.7974L109.383 31.92ZM105.383 27.92L106.257 27.4355C105.393 25.874 104.943 24.0196 104.943 21.84H103.943H102.943C102.943 24.3004 103.453 26.4994 104.508 28.4045L105.383 27.92ZM103.943 21.84H104.943C104.943 19.6559 105.381 17.7977 106.223 16.2341L105.343 15.76L104.462 15.2859C103.437 17.1889 102.943 19.3841 102.943 21.84H103.943ZM105.343 15.76L106.217 16.2445C107.087 14.6736 108.285 13.478 109.822 12.6374L109.343 11.76L108.863 10.8826C106.987 11.9086 105.518 13.3797 104.468 15.2755L105.343 15.76ZM109.343 11.76L109.822 12.6374C111.363 11.795 113.154 11.36 115.223 11.36V10.36V9.36C112.865 9.36 110.736 9.85831 108.863 10.8826L109.343 11.76ZM115.223 10.36V11.36C117.239 11.36 118.992 11.782 120.508 12.6L120.983 11.72L121.458 10.84C119.613 9.8447 117.526 9.36 115.223 9.36V10.36ZM120.983 11.72L120.508 12.6C122.019 13.4154 123.187 14.5713 124.028 16.0856L124.903 15.6L125.777 15.1144C124.751 13.2687 123.307 11.8379 121.458 10.84L120.983 11.72ZM124.903 15.6L124.034 16.0961C124.895 17.6027 125.343 19.3863 125.343 21.48H126.343H127.343C127.343 19.0937 126.83 16.9573 125.771 15.1039L124.903 15.6ZM119.343 19.68H120.343C120.343 18.2519 119.842 17.0295 118.798 16.1243L118.143 16.88L117.488 17.6357C118.043 18.1171 118.343 18.7614 118.343 19.68H119.343ZM118.143 16.88L118.798 16.1243C117.791 15.2523 116.549 14.84 115.143 14.84V15.84V16.84C116.136 16.84 116.894 17.121 117.488 17.6357L118.143 16.88ZM115.143 15.84V14.84C113.787 14.84 112.581 15.2399 111.582 16.0718L112.223 16.84L112.863 17.6082C113.465 17.1068 114.205 16.84 115.143 16.84V15.84ZM112.223 16.84L111.57 16.0826C110.579 16.9368 110.009 18.1199 109.794 19.5296L110.783 19.68L111.771 19.8304C111.93 18.7868 112.32 18.0766 112.876 17.5974L112.223 16.84ZM110.783 19.68V20.68H119.343V19.68V18.68H110.783V19.68ZM150.191 13L149.45 13.6715L149.456 13.6776L149.461 13.6836L150.191 13ZM152.551 33V34H153.551V33H152.551ZM145.751 33H144.751V34H145.751V33ZM144.591 17.4L143.861 18.0832L143.861 18.0832L144.591 17.4ZM138.351 17.4L139.081 18.0832L139.081 18.0832L138.351 17.4ZM137.191 33V34H138.191V33H137.191ZM130.351 33H129.351V34H130.351V33ZM130.351 10.68V9.68H129.351V10.68H130.351ZM137.191 10.68H138.191V9.68H137.191V10.68ZM137.191 13.64H136.191V16.8024L138.009 14.2149L137.191 13.64ZM139.991 11.32L140.422 12.2225L140.43 12.2185L140.438 12.2144L139.991 11.32ZM143.951 10.44V11.44C146.324 11.44 148.12 12.2033 149.45 13.6715L150.191 13L150.932 12.3285C149.169 10.3834 146.805 9.44 143.951 9.44V10.44ZM150.191 13L149.461 13.6836C150.816 15.1298 151.551 17.1787 151.551 19.96H152.551H153.551C153.551 16.8213 152.713 14.2302 150.921 12.3164L150.191 13ZM152.551 19.96H151.551V33H152.551H153.551V19.96H152.551ZM152.551 33V32H145.751V33V34H152.551V33ZM145.751 33H146.751V20.88H145.751H144.751V33H145.751ZM145.751 20.88H146.751C146.751 19.2161 146.317 17.7817 145.321 16.7168L144.591 17.4L143.861 18.0832C144.411 18.6717 144.751 19.5572 144.751 20.88H145.751ZM144.591 17.4L145.321 16.7168C144.329 15.6563 143.008 15.16 141.471 15.16V16.16V17.16C142.548 17.16 143.306 17.4904 143.861 18.0832L144.591 17.4ZM141.471 16.16V15.16C139.934 15.16 138.613 15.6563 137.621 16.7168L138.351 17.4L139.081 18.0832C139.636 17.4904 140.394 17.16 141.471 17.16V16.16ZM138.351 17.4L137.621 16.7168C136.625 17.7817 136.191 19.2161 136.191 20.88H137.191H138.191C138.191 19.5572 138.531 18.6717 139.081 18.0832L138.351 17.4ZM137.191 20.88H136.191V33H137.191H138.191V20.88H137.191ZM137.191 33V32H130.351V33V34H137.191V33ZM130.351 33H131.351V10.68H130.351H129.351V33H130.351ZM130.351 10.68V11.68H137.191V10.68V9.68H130.351V10.68ZM137.191 10.68H136.191V13.64H137.191H138.191V10.68H137.191ZM137.191 13.64L138.009 14.2149C138.596 13.3799 139.391 12.7144 140.422 12.2225L139.991 11.32L139.56 10.4175C138.244 11.0456 137.173 11.9268 136.373 13.0651L137.191 13.64ZM139.991 11.32L140.438 12.2144C141.457 11.705 142.621 11.44 143.951 11.44V10.44V9.44C142.348 9.44 140.872 9.76164 139.544 10.4256L139.991 11.32ZM157.624 15.76L156.732 15.3073L156.727 15.3183L157.624 15.76ZM161.184 11.76L161.714 12.608L161.714 12.608L161.184 11.76ZM170.184 11.28L169.729 12.1705L169.737 12.1744L170.184 11.28ZM173.064 13.76L172.232 14.3147L174.064 17.0628V13.76H173.064ZM173.064 3.4V2.4H172.064V3.4H173.064ZM179.904 3.4H180.904V2.4H179.904V3.4ZM179.904 33V34H180.904V33H179.904ZM173.064 33H172.064V34H173.064V33ZM173.064 29.8H174.064V26.1897L172.207 29.2855L173.064 29.8ZM170.304 32.36L169.834 31.4776L169.825 31.4821L170.304 32.36ZM161.184 31.92L160.643 32.7612L160.654 32.768L161.184 31.92ZM157.624 27.88L156.724 28.3163L156.728 28.3245L156.733 28.3327L157.624 27.88ZM171.624 17.8L170.898 18.4873L170.907 18.4974L171.624 17.8ZM164.704 17.8L163.987 17.1026L163.987 17.1029L164.704 17.8ZM164.704 25.88L163.969 26.5575L163.978 26.5675L163.987 26.5774L164.704 25.88ZM171.624 25.88L170.907 25.1826L170.898 25.1928L171.624 25.88ZM156.344 21.8H157.344C157.344 19.6314 157.747 17.7742 158.521 16.2017L157.624 15.76L156.727 15.3183C155.795 17.2125 155.344 19.3819 155.344 21.8H156.344ZM157.624 15.76L158.516 16.2127C159.322 14.6242 160.391 13.4351 161.714 12.608L161.184 11.76L160.654 10.912C158.991 11.9516 157.686 13.4291 156.733 15.3073L157.624 15.76ZM161.184 11.76L161.714 12.608C163.041 11.7786 164.523 11.36 166.184 11.36V10.36V9.36C164.166 9.36 162.314 9.87476 160.654 10.912L161.184 11.76ZM166.184 10.36V11.36C167.507 11.36 168.682 11.6353 169.729 12.1704L170.184 11.28L170.639 10.3896C169.286 9.698 167.795 9.36 166.184 9.36V10.36ZM170.184 11.28L169.737 12.1744C170.824 12.7177 171.645 13.4333 172.232 14.3147L173.064 13.76L173.896 13.2053C173.097 12.0067 171.998 11.069 170.631 10.3856L170.184 11.28ZM173.064 13.76H174.064V3.4H173.064H172.064V13.76H173.064ZM173.064 3.4V4.4H179.904V3.4V2.4H173.064V3.4ZM179.904 3.4H178.904V33H179.904H180.904V3.4H179.904ZM179.904 33V32H173.064V33V34H179.904V33ZM173.064 33H174.064V29.8H173.064H172.064V33H173.064ZM173.064 29.8L172.207 29.2855C171.669 30.1824 170.889 30.9147 169.834 31.4776L170.304 32.36L170.775 33.2424C172.119 32.5253 173.18 31.5509 173.922 30.3145L173.064 29.8ZM170.304 32.36L169.825 31.4821C168.823 32.0289 167.62 32.32 166.184 32.32V33.32V34.32C167.895 34.32 169.439 33.9711 170.783 33.2379L170.304 32.36ZM166.184 33.32V32.32C164.523 32.32 163.041 31.9014 161.714 31.072L161.184 31.92L160.654 32.768C162.314 33.8052 164.166 34.32 166.184 34.32V33.32ZM161.184 31.92L161.725 31.0788C160.395 30.2238 159.323 29.0178 158.516 27.4273L157.624 27.88L156.733 28.3327C157.685 30.2089 158.987 31.6962 160.643 32.7612L161.184 31.92ZM157.624 27.88L158.524 27.4437C157.747 25.8413 157.344 23.9681 157.344 21.8H156.344H155.344C155.344 24.2185 155.795 26.3987 156.724 28.3163L157.624 27.88ZM173.064 21.84H174.064C174.064 19.9387 173.524 18.3184 172.341 17.1026L171.624 17.8L170.907 18.4974C171.645 19.2549 172.064 20.3279 172.064 21.84H173.064ZM171.624 17.8L172.351 17.1128C171.228 15.9262 169.819 15.32 168.184 15.32V16.32V17.32C169.27 17.32 170.154 17.7005 170.898 18.4872L171.624 17.8ZM168.184 16.32V15.32C166.551 15.32 165.133 15.9252 163.987 17.1026L164.704 17.8L165.421 18.4974C166.195 17.7015 167.098 17.32 168.184 17.32V16.32ZM164.704 17.8L163.987 17.1029C162.826 18.2971 162.304 19.9077 162.304 21.8H163.304H164.304C164.304 20.279 164.716 19.2229 165.421 18.4971L164.704 17.8ZM163.304 21.8H162.304C162.304 23.695 162.827 25.318 163.969 26.5575L164.704 25.88L165.44 25.2025C164.715 24.4153 164.304 23.3184 164.304 21.8H163.304ZM164.704 25.88L163.987 26.5774C165.133 27.7548 166.551 28.36 168.184 28.36V27.36V26.36C167.098 26.36 166.195 25.9785 165.421 25.1826L164.704 25.88ZM168.184 27.36V28.36C169.819 28.36 171.228 27.7538 172.351 26.5672L171.624 25.88L170.898 25.1928C170.154 25.9795 169.27 26.36 168.184 26.36V27.36ZM171.624 25.88L172.341 26.5774C173.524 25.3616 174.064 23.7413 174.064 21.84H173.064H172.064C172.064 23.3521 171.645 24.4251 170.907 25.1826L171.624 25.88Z" fill="black" mask="url(#path-1-outside-1_434_2470)"/>
</svg>
